HIERARCHY
ROOT Hips
{
	OFFSET -0.001795 -0.223333 0.028219
	CHANNELS 6 Xposition Yposition Zposition Zrotation Yrotation Xrotation 
	JOINT LeftUpLeg
	{
		OFFSET 0.069520 -0.091406 -0.006815
		CHANNELS 3 Zrotation Yrotation Xrotation
		JOINT LeftLeg
		{
			OFFSET 0.034277 -0.375199 -0.004496
			CHANNELS 3 Zrotation Yrotation Xrotation
			JOINT LeftFoot
			{
				OFFSET -0.013596 -0.397961 -0.043693
				CHANNELS 3 Zrotation Yrotation Xrotation
				JOINT LeftToe
				{
					OFFSET 0.026358 -0.055791 0.119288
					CHANNELS 3 Zrotation Yrotation Xrotation
					End Site
					{
						OFFSET 0.000000 0.000000 0.000000
					}
				}
			}
		}
	}
	JOINT RightUpLeg
	{
		OFFSET -0.067670 -0.090522 -0.004320
		CHANNELS 3 Zrotation Yrotation Xrotation
		JOINT RightLeg
		{
			OFFSET -0.038290 -0.382569 -0.008850
			CHANNELS 3 Zrotation Yrotation Xrotation
			JOINT RightFoot
			{
				OFFSET 0.015774 -0.398415 -0.042312
				CHANNELS 3 Zrotation Yrotation Xrotation
				JOINT RightToe
				{
					OFFSET -0.025372 -0.048144 0.123348
					CHANNELS 3 Zrotation Yrotation Xrotation
					End Site
					{
						OFFSET 0.000000 0.000000 0.000000
					}
				}
			}
		}
	}
	JOINT Spine
	{
		OFFSET -0.002533 0.108963 -0.026696
		CHANNELS 3 Zrotation Yrotation Xrotation
		JOINT Spine1
		{
			OFFSET 0.005487 0.135180 0.001092
			CHANNELS 3 Zrotation Yrotation Xrotation
			JOINT Spine2
			{
				OFFSET 0.001457 0.052922 0.025425
				CHANNELS 3 Zrotation Yrotation Xrotation
				JOINT Neck
				{
					OFFSET -0.002778 0.213870 -0.042857
					CHANNELS 3 Zrotation Yrotation Xrotation
					JOINT Head
					{
						OFFSET 0.005152 0.064970 0.051349
						CHANNELS 3 Zrotation Yrotation Xrotation
						End Site
						{
							OFFSET 0.000000 0.000000 0.000000
						}
					}
				}
				JOINT LeftShoulder
				{
					OFFSET 0.078845 0.121749 -0.034090
					CHANNELS 3 Zrotation Yrotation Xrotation
					JOINT LeftArm
					{
						OFFSET 0.090977 0.030469 -0.008868
						CHANNELS 3 Zrotation Yrotation Xrotation
						JOINT LeftForeArm
						{
							OFFSET 0.259612 -0.012772 -0.027456
							CHANNELS 3 Zrotation Yrotation Xrotation
							JOINT LeftHand
							{
								OFFSET 0.249234 0.008986 -0.001171
								CHANNELS 3 Zrotation Yrotation Xrotation
								End Site
								{
									OFFSET 0.000000 0.000000 0.000000
								}
							}
						}
					}
				}
				JOINT RightShoulder
				{
					OFFSET -0.081759 0.118833 -0.038615
					CHANNELS 3 Zrotation Yrotation Xrotation
					JOINT RightArm
					{
						OFFSET -0.096012 0.032551 -0.009143
						CHANNELS 3 Zrotation Yrotation Xrotation
						JOINT RightForeArm
						{
							OFFSET -0.253742 -0.013329 -0.021401
							CHANNELS 3 Zrotation Yrotation Xrotation
							JOINT RightHand
							{
								OFFSET -0.255298 0.007772 -0.005559
								CHANNELS 3 Zrotation Yrotation Xrotation
								End Site
								{
									OFFSET 0.000000 0.000000 0.000000
								}
							}
						}
					}
				}
			}
		}
	}
}
MOTION
Frames: 7
Frame Time: 0.050000
0.000000 0.934515 0.000000 -1.139108 -10.147063 -1.219538 0.726237 0.324740 3.304448 -1.161182 0.110044 2.753523 0.988826 2.310217 0.506240 0.000000 0.000000 0.000000 3.139480 -0.353028 2.119012 -0.476980 0.453634 7.533178 3.238938 6.009358 2.610933 0.000000 0.000000 0.000000 5.245448 -0.015417 0.135246 -2.278241 1.073462 -0.728915 -0.544926 2.865300 5.016742 4.500353 -2.545867 -9.681554 0.000000 0.000000 0.000000 -25.516102 -3.739879 0.599799 -50.720047 -3.696201 -4.811290 -7.264582 -18.576022 1.943110 0.000000 0.000000 0.000000 22.525092 -0.480466 -3.168251 54.647045 -0.121298 -5.272493 6.526574 22.224560 1.782614 0.000000 0.000000 0.000000 
-0.000372 0.936179 0.000173 -1.092213 -11.069786 -0.814469 0.577476 0.371784 3.708170 -1.151745 0.131642 1.375964 1.190900 2.989002 1.458483 0.000000 0.000000 0.000000 3.207822 -0.357828 2.088037 -0.935914 0.470780 6.672019 3.800985 6.771879 3.263982 0.000000 0.000000 0.000000 5.314150 0.045754 -0.587834 -2.517482 1.219782 0.131478 -0.307750 3.404134 4.294566 5.160042 -3.087914 -8.728363 0.000000 0.000000 0.000000 -25.328811 -4.128912 0.791406 -50.457147 -2.645507 -5.133285 -7.775475 -19.669758 2.144871 0.000000 0.000000 0.000000 22.044312 -0.548397 -3.139329 55.340161 -0.508829 -5.463025 5.865150 22.706797 1.700784 0.000000 0.000000 0.000000 
-0.001018 0.937402 0.000334 -1.213825 -10.457455 -0.335922 0.556755 0.318945 3.227243 -0.678705 0.063733 1.232711 0.937643 2.558827 1.831768 0.000000 0.000000 0.000000 3.249967 -0.315061 1.666150 -0.535936 0.404258 6.577006 3.758083 6.227210 3.861568 0.000000 0.000000 0.000000 5.283337 0.066902 -0.916948 -2.272236 1.051239 -1.292388 -0.530431 4.093552 5.082771 5.647634 -3.351900 -8.994279 0.000000 0.000000 0.000000 -24.769149 -4.012824 0.459362 -50.807424 -3.008418 -5.001202 -8.191944 -19.697613 2.200877 0.000000 0.000000 0.000000 21.682780 -1.039820 -3.061908 55.964864 -1.318251 -6.043203 6.802819 23.025552 1.957846 0.000000 0.000000 0.000000 
-0.002167 0.936633 0.000594 -0.848138 -10.652691 -0.204556 0.306291 0.324396 3.225701 -0.859302 0.095508 0.942220 1.004703 2.688430 1.804951 0.000000 0.000000 0.000000 3.319217 -0.339182 1.831306 -1.290782 0.472593 5.962616 3.654547 6.387384 3.336240 0.000000 0.000000 0.000000 5.240877 0.081194 -1.100054 -2.429762 1.136675 -0.950917 -0.662436 4.552039 5.015227 5.755757 -3.559229 -7.833499 0.000000 0.000000 0.000000 -24.275017 -3.806780 0.225190 -51.421142 -2.897173 -5.059948 -8.066752 -20.699018 2.286293 0.000000 0.000000 0.000000 21.905976 -1.805281 -3.414832 55.873369 -1.200531 -5.988036 7.511682 23.166135 2.121904 0.000000 0.000000 0.000000 
-0.003899 0.936768 0.000621 -0.781595 -10.082466 -0.353902 0.591958 0.316920 3.228467 -1.146516 0.130884 1.143226 0.740121 2.154324 1.836831 0.000000 0.000000 0.000000 3.322881 -0.350737 1.951161 -1.062475 0.448845 6.110214 3.448596 5.910517 3.362655 0.000000 0.000000 0.000000 5.199241 0.094671 -1.238571 -2.420104 1.129080 -1.096296 -0.737526 4.592062 5.624199 5.307283 -3.214035 -7.987732 0.000000 0.000000 0.000000 -24.455199 -3.923394 0.201619 -50.862760 -2.912493 -5.031097 -8.004717 -21.873224 2.405757 0.000000 0.000000 0.000000 22.298920 -1.684477 -3.282177 55.611577 -1.145699 -6.011173 7.440944 23.595902 2.179017 0.000000 0.000000 0.000000 
-0.006178 0.936194 0.000710 -0.427249 -8.561281 -0.046791 0.099534 0.204081 2.068559 -0.377241 -0.007188 2.277470 0.285165 1.112909 1.470823 0.000000 0.000000 0.000000 3.981477 -0.367550 1.827074 -2.205461 0.592114 5.833437 2.641477 4.454167 2.860301 0.000000 0.000000 0.000000 4.729809 0.129688 -1.796058 -2.410708 1.146165 -0.507908 -0.295745 3.447650 5.430976 3.857236 -2.313867 -7.042291 0.000000 0.000000 0.000000 -24.118018 -3.888631 0.331019 -51.167846 -3.084078 -5.003223 -8.274400 -22.332153 2.530295 0.000000 0.000000 0.000000 21.968282 -1.185396 -3.081561 55.333821 -0.666004 -5.710159 7.715598 23.070477 2.149587 0.000000 0.000000 0.000000 
-0.008492 0.936003 0.000782 -0.019752 -7.576282 0.175744 0.060103 0.048126 0.495329 -0.630848 -0.013834 4.390126 -0.025153 0.416107 1.296415 0.000000 0.000000 0.000000 3.870195 -0.319336 1.485146 -2.222011 0.609434 6.053817 2.161534 3.543471 2.599746 0.000000 0.000000 0.000000 4.394212 0.147332 -2.125319 -2.709916 1.287649 -0.603895 -0.270276 3.397898 5.745400 3.410914 -1.999942 -6.772713 0.000000 0.000000 0.000000 -23.453558 -3.685082 0.112028 -51.044184 -3.121169 -4.959844 -9.075422 -23.396328 2.808662 0.000000 0.000000 0.000000 21.711790 -1.096735 -2.855373 55.660168 0.313046 -5.357427 8.211001 22.934198 2.254229 0.000000 0.000000 0.000000 
